<?xml version="1.0" standalone="no"?>
<!DOCTYPE svg PUBLIC "-//W3C//DTD SVG 20010904//EN"
 "http://www.w3.org/TR/2001/REC-SVG-20010904/DTD/svg10.dtd">
<svg version="1.0" xmlns="http://www.w3.org/2000/svg"
 width="512.000000pt" height="512.000000pt" viewBox="0 0 512.000000 512.000000"
 preserveAspectRatio="xMidYMid meet">
<metadata>
Created by potrace 1.14, written by Peter Selinger 2001-2017
</metadata>
<g transform="translate(0.000000,512.000000) scale(0.100000,-0.100000)"
fill="#000000" stroke="none">
<path d="M2354 4271 c3 -4 -11 -6 -31 -6 -20 1 -37 -4 -40 -11 -2 -7 -11 -10
-19 -7 -8 3 -14 0 -14 -6 0 -6 -9 -11 -20 -11 -11 0 -28 -9 -37 -19 -9 -11
-20 -18 -25 -15 -4 3 -8 0 -8 -5 0 -6 -7 -11 -16 -11 -8 0 -12 -4 -9 -10 5 -9
-10 -15 -18 -7 -1 1 -19 -15 -39 -35 -19 -20 -39 -34 -43 -30 -5 4 -5 2 -2 -4
3 -6 -2 -18 -11 -27 -27 -25 -39 -42 -61 -83 -12 -21 -21 -34 -22 -29 0 10
-21 -33 -23 -48 -1 -4 -8 -12 -16 -17 -8 -5 -11 -12 -7 -16 4 -4 2 -14 -5 -21
-7 -8 -13 -22 -14 -31 -2 -10 -5 -26 -8 -37 -2 -11 -5 -24 -5 -28 -1 -5 -5 -6
-9 -3 -5 3 -8 -13 -7 -35 1 -22 -2 -42 -7 -45 -4 -3 -8 -43 -8 -90 0 -65 3
-84 13 -78 9 5 9 4 0 -6 -9 -10 -10 -17 -2 -27 7 -7 9 -13 6 -13 -8 0 43 -114
54 -121 5 -3 -2 -18 -15 -34 -14 -16 -23 -33 -20 -37 3 -5 2 -7 -3 -6 -12 4
-53 -34 -53 -49 0 -6 -9 -15 -21 -18 -11 -4 -18 -9 -15 -12 2 -3 -4 -14 -14
-26 -11 -11 -16 -25 -13 -31 3 -6 3 -8 -2 -4 -8 8 -35 -15 -35 -31 0 -5 -10
-13 -21 -16 -12 -4 -17 -10 -11 -14 6 -4 4 -14 -8 -28 -9 -12 -20 -19 -24 -16
-3 4 -6 -1 -6 -11 0 -9 -4 -14 -10 -11 -5 3 -8 0 -5 -7 3 -7 -6 -26 -20 -42
-14 -16 -25 -35 -25 -43 0 -7 -7 -16 -15 -19 -8 -4 -12 -10 -9 -15 3 -5 1 -9
-4 -9 -5 0 -17 -17 -28 -37 -10 -21 -25 -42 -32 -48 -7 -5 -14 -21 -17 -35 -3
-14 -9 -26 -15 -28 -5 -2 -10 -10 -10 -18 0 -8 -5 -14 -10 -14 -6 0 -10 -3 -9
-7 2 -14 -13 -53 -20 -53 -4 0 -15 -20 -25 -45 -11 -25 -22 -45 -26 -45 -4 0
-10 -13 -13 -29 -3 -16 -13 -36 -22 -45 -9 -9 -13 -20 -10 -26 3 -5 1 -10 -4
-10 -6 0 -11 -9 -11 -21 0 -11 -5 -17 -10 -14 -6 3 -10 -5 -10 -19 0 -14 -5
-28 -11 -31 -6 -4 -8 -13 -5 -21 3 -8 1 -14 -4 -14 -6 0 -10 -11 -10 -25 0
-14 -4 -25 -10 -25 -5 0 -10 -11 -10 -25 0 -14 -6 -25 -12 -25 -10 0 -9 -3 1
-9 8 -5 9 -11 3 -15 -6 -4 -9 -15 -7 -26 2 -11 -1 -20 -6 -20 -6 0 -7 -4 -4
-10 3 -5 3 -16 -2 -22 -9 -14 -12 -237 -3 -236 18 1 23 -4 10 -12 -8 -5 -10
-10 -5 -10 6 0 10 -16 9 -35 -1 -19 2 -32 7 -29 5 3 9 -11 9 -31 0 -22 4 -34
10 -30 5 3 10 -2 10 -12 0 -24 31 -105 47 -121 7 -7 13 -20 13 -28 0 -8 5 -14
10 -14 6 0 10 -5 10 -11 0 -15 26 -39 35 -31 4 4 5 2 3 -5 -3 -12 87 -114 95
-107 2 2 16 -7 30 -20 14 -13 28 -21 31 -18 3 3 6 0 6 -6 0 -7 6 -12 14 -12 8
0 17 -7 20 -16 4 -9 9 -14 12 -11 3 3 24 -4 45 -15 39 -20 50 -30 27 -26 -8 2
-13 -6 -12 -19 0 -15 -5 -20 -18 -18 -9 2 -20 0 -23 -6 -4 -5 -11 -9 -16 -9
-6 0 -7 5 -3 12 5 7 3 8 -7 2 -8 -5 -25 -10 -39 -12 -14 -2 -29 -7 -35 -13 -5
-5 -17 -9 -28 -9 -11 0 -15 -4 -11 -12 5 -7 3 -8 -5 -4 -7 5 -18 0 -26 -10 -8
-11 -15 -15 -15 -11 0 11 -80 -74 -80 -85 0 -5 -6 -6 -12 -2 -7 4 -10 4 -6 0
3 -4 0 -19 -7 -33 -8 -15 -11 -31 -8 -36 3 -6 1 -7 -4 -4 -11 7 -24 -27 -28
-78 -2 -16 -6 -38 -10 -47 -5 -12 -2 -18 6 -18 9 0 10 -3 4 -8 -12 -9 -18 -32
-7 -32 4 0 8 -15 8 -32 1 -18 4 -42 7 -53 3 -11 6 -24 6 -28 1 -5 6 -5 11 -2
5 3 10 -3 10 -14 0 -12 5 -21 10 -21 6 0 16 -11 22 -25 6 -14 16 -25 22 -25 6
-1 24 -11 40 -24 l29 -24 -1 -143 c-1 -167 -2 -176 -29 -246 -3 -10 -6 -28 -6
-41 0 -12 -4 -22 -8 -22 -5 0 -9 -7 -9 -15 0 -8 -9 -30 -20 -50 -11 -20 -20
-38 -20 -40 0 -3 509 -5 1131 -5 895 0 1129 3 1122 13 -7 10 -9 32 -4 47 7 19
7 71 0 75 -4 3 -4 17 1 30 6 15 6 27 0 30 -13 8 -13 25 0 25 5 0 9 -3 8 -7 0
-5 7 -26 17 -48 10 -22 18 -46 18 -52 0 -7 4 -13 9 -13 4 0 8 -6 8 -14 0 -8 7
-22 16 -30 8 -9 12 -16 8 -16 -4 0 2 -9 14 -20 20 -19 35 -20 212 -20 104 0
190 3 190 6 0 3 -16 29 -35 58 -19 29 -35 58 -35 65 0 6 -4 11 -9 11 -5 0 -12
14 -16 30 -4 17 -11 28 -16 24 -5 -3 -9 3 -9 13 0 11 -6 25 -12 32 -10 11 -10
12 -1 7 9 -5 11 -2 7 8 -3 9 -10 16 -16 16 -5 0 -7 4 -3 9 3 5 -1 16 -9 24
-11 11 -12 17 -3 27 9 10 9 11 0 6 -8 -4 -13 -1 -14 8 -2 19 -4 26 -13 48 -4
9 -5 22 -1 28 4 6 1 9 -6 8 -7 -2 -14 6 -16 17 -1 11 -4 34 -7 50 -2 17 -5 40
-5 53 -1 13 -4 21 -9 19 -4 -3 -7 10 -7 28 0 18 2 33 5 32 3 -1 16 6 30 16 13
9 20 17 15 17 -6 1 3 8 18 16 15 8 25 19 22 23 -2 5 2 14 10 21 8 7 15 21 15
32 0 10 4 16 10 13 5 -3 7 0 4 8 -3 8 0 18 5 22 6 3 9 11 6 16 -4 5 -2 9 4 9
6 0 8 6 5 14 -3 8 -1 17 5 21 8 4 8 12 0 27 -8 15 -8 19 0 14 7 -4 11 1 11 13
0 12 -5 21 -11 21 -5 0 -7 5 -4 10 4 6 12 7 18 3 8 -5 8 -2 0 9 -7 8 -10 18
-6 21 3 4 2 7 -4 7 -6 0 -10 8 -10 17 1 24 -14 87 -22 93 -15 12 -42 62 -30
55 8 -4 3 4 -11 18 -14 14 -49 50 -77 80 -29 30 -53 50 -53 43 0 -6 -5 -3 -11
6 -5 10 -19 18 -30 18 -11 0 -17 5 -14 10 3 6 -3 10 -14 10 -12 0 -21 4 -21 9
0 6 -9 8 -20 6 -12 -2 -23 2 -26 9 -5 12 -33 16 -107 16 l-38 -1 48 50 c26 27
49 55 51 63 2 7 8 15 13 16 5 2 9 10 9 18 0 8 4 14 9 14 5 0 12 14 16 30 4 16
10 30 15 30 8 0 21 32 25 62 1 10 8 25 15 33 7 9 10 18 7 22 -4 3 -2 13 2 22
32 59 34 369 4 506 -4 17 -6 34 -5 39 2 4 -2 14 -7 20 -6 7 -11 27 -13 44 -1
18 -6 32 -10 32 -4 0 -8 11 -8 25 0 14 -4 25 -10 25 -5 0 -10 7 -10 16 0 20
-33 117 -42 124 -3 3 -10 18 -13 33 -4 16 -14 31 -21 34 -8 3 -12 9 -9 13 3 5
1 11 -5 15 -5 3 -10 14 -10 25 0 10 -7 21 -16 24 -8 3 -13 10 -10 15 4 5 -1
16 -9 24 -8 9 -15 23 -15 32 0 9 -4 13 -10 10 -5 -3 -10 1 -10 9 0 8 -10 25
-22 37 -13 12 -16 18 -8 14 11 -6 10 -3 -2 12 -10 11 -18 25 -18 31 0 7 -5 12
-10 12 -6 0 -18 16 -27 35 -9 19 -20 32 -25 29 -4 -3 -8 2 -8 10 0 9 -5 16
-11 16 -5 0 -8 4 -5 8 3 5 -5 18 -17 29 -29 26 -53 62 -49 75 1 5 -2 7 -8 3
-5 -3 -10 -1 -10 5 0 6 -4 8 -10 5 -5 -3 -10 -1 -10 6 0 6 -12 24 -27 39 -16
15 -50 51 -76 79 -26 28 -52 51 -58 51 -6 0 -8 3 -6 8 5 7 -10 25 -28 33 -5 2
-9 7 -8 11 1 3 -13 13 -32 22 -19 9 -34 22 -32 28 1 5 -6 12 -17 13 -10 2 -24
13 -32 23 -8 11 -28 24 -45 27 -20 5 -27 10 -19 15 8 5 4 9 -12 13 -12 4 -25
6 -27 6 -2 0 -7 5 -12 13 -5 7 -12 13 -16 13 -4 1 -23 9 -40 18 -18 10 -34 16
-36 15 -2 -2 -11 5 -20 14 -11 10 -13 19 -7 23 6 4 8 10 5 15 -3 4 1 10 9 13
7 3 13 16 12 29 -1 13 1 28 5 33 5 6 9 30 10 53 2 23 8 42 13 42 7 0 8 3 1 8
-5 4 -10 16 -10 27 0 11 5 23 10 28 7 5 7 10 0 15 -12 9 -12 42 -1 61 6 10 5
12 -2 7 -8 -5 -12 3 -13 23 -1 17 -3 36 -4 41 -1 6 -3 16 -4 24 0 8 -7 21 -14
28 -14 14 -17 20 -17 41 0 8 -11 27 -25 43 -14 16 -25 32 -25 35 0 26 -122
105 -143 92 -6 -4 -8 0 -5 9 5 12 -1 15 -28 13 -19 -1 -34 1 -34 4 0 3 -22 7
-50 7 -27 1 -48 -2 -46 -5z"/>
</g>
</svg>
